<svg width="51" height="33" viewBox="0 0 51 33" fill="none" xmlns="http://www.w3.org/2000/svg">
    <path d="M3.1875 7.34375C3.1875 6.49837 3.52332 5.68762 4.1211 5.08985C4.71887 4.49207 5.52962 4.15625 6.375 4.15625L44.625 4.15625C45.4704 4.15625 46.2811 4.49207 46.8789 5.08985C47.4767 5.68762 47.8125 6.49837 47.8125 7.34375L47.8125 26.4687C47.8125 27.3141 47.4767 28.1249 46.8789 28.7227C46.2811 29.3204 45.4704 29.6562 44.625 29.6562L6.375 29.6562C5.52962 29.6562 4.71887 29.3204 4.1211 28.7227C3.52332 28.1249 3.1875 27.3141 3.1875 26.4688L3.1875 7.34375ZM0 26.4688C0 28.1595 0.67165 29.781 1.86719 30.9766C3.06274 32.1721 4.68424 32.8438 6.375 32.8438L44.625 32.8437C46.3158 32.8437 47.9373 32.1721 49.1328 30.9766C50.3284 29.781 51 28.1595 51 26.4687L51 7.34375C51 5.65299 50.3284 4.03149 49.1328 2.83594C47.9373 1.6404 46.3158 0.96875 44.625 0.96875L6.375 0.96875C4.68424 0.96875 3.06274 1.6404 1.86719 2.83594C0.67165 4.03149 0 5.65299 0 7.34375L0 26.4688Z" fill="white"/>
    <path d="M44.625 16.9062C44.625 16.0609 44.2892 15.2501 43.6914 14.6523C43.0936 14.0546 42.2829 13.7188 41.4375 13.7188C40.5921 13.7188 39.7814 14.0546 39.1836 14.6523C38.5858 15.2501 38.25 16.0609 38.25 16.9062C38.25 17.7516 38.5858 18.5624 39.1836 19.1602C39.7814 19.7579 40.5921 20.0938 41.4375 20.0938C42.2829 20.0938 43.0936 19.7579 43.6914 19.1602C44.2892 18.5624 44.625 17.7516 44.625 16.9062Z" fill="white"/>
</svg>
