<svg width="33" height="51" viewBox="0 0 33 51" fill="none" xmlns="http://www.w3.org/2000/svg">
    <path d="M25.6562 3.1875C26.5016 3.1875 27.3124 3.52332 27.9102 4.1211C28.5079 4.71887 28.8437 5.52962 28.8437 6.375L28.8437 44.625C28.8437 45.4704 28.5079 46.2811 27.9102 46.8789C27.3124 47.4767 26.5016 47.8125 25.6562 47.8125L6.53125 47.8125C5.68587 47.8125 4.87512 47.4767 4.27735 46.8789C3.67957 46.2811 3.34375 45.4704 3.34375 44.625L3.34375 6.375C3.34375 5.52962 3.67957 4.71887 4.27735 4.1211C4.87512 3.52332 5.68587 3.1875 6.53125 3.1875L25.6562 3.1875ZM6.53125 -1.11464e-06C4.84049 -1.18855e-06 3.21899 0.671649 2.02345 1.86719C0.827902 3.06274 0.15625 4.68424 0.15625 6.375L0.156248 44.625C0.156248 46.3158 0.8279 47.9373 2.02344 49.1328C3.21899 50.3283 4.84049 51 6.53125 51L25.6562 51C27.347 51 28.9685 50.3283 30.1641 49.1328C31.3596 47.9373 32.0312 46.3158 32.0312 44.625L32.0312 6.375C32.0312 4.68424 31.3596 3.06274 30.1641 1.86719C28.9685 0.67165 27.347 -2.04755e-07 25.6562 -2.7866e-07L6.53125 -1.11464e-06Z" fill="white"/>
    <path d="M16.0937 44.625C16.9391 44.625 17.7499 44.2892 18.3477 43.6914C18.9454 43.0936 19.2812 42.2829 19.2812 41.4375C19.2812 40.5921 18.9454 39.7814 18.3477 39.1836C17.7499 38.5858 16.9391 38.25 16.0938 38.25C15.2484 38.25 14.4376 38.5858 13.8398 39.1836C13.2421 39.7814 12.9062 40.5921 12.9062 41.4375C12.9062 42.2829 13.2421 43.0936 13.8398 43.6914C14.4376 44.2892 15.2484 44.625 16.0937 44.625Z" fill="white"/>
</svg>
