<svg width="25" height="28" viewBox="0 0 25 28" fill="none" xmlns="http://www.w3.org/2000/svg">
    <path d="M13.75 1.50049H14.0909C18.1674 1.50049 20.2057 1.50049 21.6212 2.49778C22.0267 2.78352 22.3868 3.12239 22.6904 3.5041C23.75 4.83633 23.75 6.75469 23.75 10.5914V13.7732C23.75 17.4772 23.75 19.3292 23.1638 20.8083C22.2215 23.1862 20.2286 25.0619 17.702 25.9488C16.1305 26.5005 14.1627 26.5005 10.2273 26.5005C7.97844 26.5005 6.85402 26.5005 5.95597 26.1852C4.51224 25.6784 3.37344 24.6066 2.83495 23.2478C2.5 22.4026 2.5 21.3443 2.5 19.2278V14.0005"
          stroke="#FFFFFF" stroke-width="2" stroke-linecap="round" stroke-linejoin="round"/>
    <path d="M23.75 14C23.75 16.3012 21.8845 18.1667 19.5833 18.1667C18.7511 18.1667 17.77 18.0208 16.9608 18.2377C16.2419 18.4303 15.6803 18.9919 15.4877 19.7108C15.2708 20.52 15.4167 21.5011 15.4167 22.3333C15.4167 24.6345 13.5512 26.5 11.25 26.5"
          stroke="#FFFFFF" stroke-width="2" stroke-linecap="round" stroke-linejoin="round"/>
    <path d="M11.25 6.50049L1.25 6.50049M6.25 1.50049V11.5005" stroke="#FFFFFF" stroke-width="2"
          stroke-linecap="round"/>
</svg>
